<svg width="674" height="192" viewBox="0 0 674 192" fill="none" xmlns="http://www.w3.org/2000/svg">
    <path fill-rule="evenodd" clip-rule="evenodd"
        d="M58.5024 84.5778C63.4015 84.5778 68.2728 84.5079 73.1081 84.3683C82.7601 84.0252 90.0878 83.6145 96.9113 83.0345C104.036 82.4869 111.772 81.6708 120.559 80.5395C124.129 80.0799 126.604 77.1383 126.086 73.969C125.568 70.7991 122.257 68.5997 118.684 69.0624C110.135 70.1627 102.635 70.9544 95.7546 71.4828L95.6943 71.4878C89.1121 72.0475 82.0002 72.4457 72.6342 72.7788C57.5319 73.2149 41.9836 72.9447 26.4719 71.9749C11.7297 71.0646 -3.28792 69.4865 -19.4453 67.1497C-34.1469 65.0172 -49.4089 62.268 -64.8032 58.9792C-68.3136 58.2298 -71.8386 60.1469 -72.6828 63.2607C-73.5266 66.3742 -71.3678 69.5056 -67.8602 70.2551C-52.1528 73.6103 -36.5713 76.4164 -21.5487 78.5958C-4.98903 80.9906 10.4193 82.609 25.5597 83.5438C36.5657 84.2322 47.5982 84.5778 58.5024 84.5778Z"
        fill="#9063CD" />
    <path fill-rule="evenodd" clip-rule="evenodd"
        d="M664.763 168.136C666.203 168.136 667.663 167.834 669.025 167.196C673.491 165.103 675.201 160.192 672.843 156.227C665.324 143.581 656.325 130.845 646.096 118.372C636.086 106.195 625.171 94.698 613.647 84.1941C601.705 73.3039 588.97 63.361 575.797 54.6424C562.071 45.5597 547.629 37.6266 532.872 31.0633C528.355 29.0545 522.861 30.6764 520.599 34.6849C518.337 38.6934 520.163 43.5713 524.679 45.5795C538.479 51.717 551.999 59.1456 564.865 67.6597C577.267 75.8671 589.27 85.2413 600.543 95.521C611.467 105.478 621.82 116.384 631.315 127.936C641.025 139.774 649.557 151.845 656.668 163.806C658.307 166.562 661.481 168.136 664.763 168.136Z"
        fill="#FDDA24" />
    <path fill-rule="evenodd" clip-rule="evenodd"
        d="M633.192 110.03C634.643 110.03 636.102 109.603 637.314 108.726C640.111 106.704 640.531 103.051 638.253 100.568C634.705 96.7021 631.055 92.9984 628.272 90.2039L628.222 90.1544C624.402 86.4057 621.154 83.275 617.717 80.1799C610.65 73.7274 603.074 67.4371 595.23 61.5115C579.346 49.4756 562.241 38.9886 544.396 30.3482C526.088 21.4744 506.784 14.4791 487.021 9.55771C467.477 4.67547 446.917 1.68997 425.917 0.685094C422.312 0.51511 419.237 2.96531 419.042 6.16337C418.848 9.36112 421.611 12.0934 425.213 12.2655C445.256 13.2244 464.862 16.07 483.487 20.7228C502.307 25.4093 520.692 32.0725 538.138 40.5281C555.193 48.7866 571.55 58.8159 586.756 70.3381C594.296 76.0339 601.569 82.0726 608.382 88.2928C611.68 91.2629 614.813 94.2832 618.509 97.9101C621.208 100.62 624.734 104.199 628.124 107.893C629.415 109.3 631.296 110.03 633.192 110.03Z"
        fill="#9063CD" />
    <path fill-rule="evenodd" clip-rule="evenodd"
        d="M56.061 79.1962H56.0914L58.223 79.1915C61.7377 79.1852 65.3713 79.1786 69.0165 79.0694C72.4874 79.0202 75.9362 78.8734 79.2725 78.7316C80.1562 78.694 81.0395 78.6562 81.9236 78.6205L82.0664 78.6139C91.9938 78.0733 100.221 77.4325 107.96 76.5966C117.164 75.5987 125.571 74.4776 133.665 73.1697C142.063 71.8017 150.607 70.2021 159.073 68.4133C174.463 65.1298 190.755 60.9867 208.898 55.7429C220.37 52.4356 231.967 48.8888 243.181 45.4587C248.005 43.9837 252.833 42.507 257.671 41.0423C262.452 39.5957 265.005 34.9824 263.375 30.7391C261.746 26.4951 256.55 24.2278 251.769 25.675C246.912 27.145 242.066 28.6273 237.224 30.108C226.085 33.5149 214.567 37.0375 203.242 40.3026C185.555 45.4146 169.717 49.4438 154.819 52.6221C146.68 54.342 138.45 55.8828 130.377 57.1979C122.649 58.447 114.589 59.521 105.747 60.4795C98.4025 61.2728 90.5413 61.8845 81.0184 62.4038C80.1445 62.4395 79.2704 62.4765 78.3965 62.5137C75.0306 62.6571 71.8517 62.7923 68.649 62.8361L68.4759 62.8399C65.0973 62.9429 61.7406 62.9492 58.1867 62.9551L56.0311 62.9598C50.9806 62.9748 46.8999 66.6212 46.9165 71.1049C46.9334 75.5789 51.0247 79.1958 56.061 79.1962Z"
        fill="#FF7F41" />
    <path fill-rule="evenodd" clip-rule="evenodd"
        d="M479.342 28.6599C482.8 28.6599 485.965 26.6135 486.906 23.5084C488.032 19.7976 485.555 15.9794 481.375 14.9805C440.434 5.1972 394.291 4.23929 344.227 12.133C339.965 12.8051 337.123 16.417 337.88 20.2008C338.637 23.9846 342.707 26.5055 346.969 25.8353C394.749 18.3012 438.599 19.1709 477.3 28.4188C477.982 28.5819 478.668 28.6599 479.342 28.6599Z"
        fill="#F5B6CD" />
    <path fill-rule="evenodd" clip-rule="evenodd"
        d="M182.983 70.5001C183.817 70.5001 184.664 70.3984 185.506 70.1843C204.795 65.2773 223.831 59.5336 243.261 53.5876L245.407 52.9308C263.168 47.497 281.533 41.8775 299.669 37.1543C304.515 35.8924 307.292 31.3818 305.87 27.0796C304.448 22.7768 299.366 20.3132 294.521 21.5747C275.976 26.4041 257.406 32.0861 239.447 37.581L237.301 38.2375C218.112 44.1102 199.327 49.7788 180.468 54.5762C175.613 55.8111 172.805 60.3065 174.196 64.6165C175.346 68.1789 179.006 70.5001 182.983 70.5001Z"
        fill="#00C389" />
    <path fill-rule="evenodd" clip-rule="evenodd"
        d="M83.4231 126.629C83.7799 126.629 84.1382 126.619 84.4997 126.597C104.54 125.39 125.285 122.817 146.157 118.948C164.833 115.497 184.433 110.861 206.069 104.776C214.323 102.455 218.894 94.6332 216.279 87.3057C213.664 79.9793 204.853 75.9209 196.6 78.2422C175.987 84.0394 157.394 88.4418 139.759 91.6996C120.285 95.31 100.982 97.7073 82.3782 98.827C73.7401 99.347 67.2121 105.985 67.7979 113.654C68.3593 121.002 75.2487 126.629 83.4231 126.629Z"
        fill="#F5B6CD" />
    <path fill-rule="evenodd" clip-rule="evenodd"
        d="M52.7731 145.296C62.3556 145.296 72.2216 145.038 82.1063 144.528L82.1966 144.523C91.8721 143.981 101.834 143.147 111.805 142.044L111.949 142.027L119.39 141.148L126.407 140.199C128.162 139.97 129.816 139.714 131.416 139.466C132.196 139.346 132.975 139.225 133.755 139.11L133.917 139.086C134.3 139.026 134.684 138.968 135.068 138.91C135.934 138.78 136.8 138.649 137.662 138.505L141.207 137.907C151.13 136.232 157.645 127.733 155.759 118.924C153.873 110.115 144.301 104.33 134.376 106.005L130.865 106.598C130.25 106.7 129.599 106.798 128.947 106.896C128.525 106.959 128.104 107.023 127.682 107.088C126.833 107.214 125.984 107.345 125.136 107.476C123.697 107.699 122.339 107.909 121.055 108.076L114.055 109.022L107.213 109.828C98.0147 110.845 88.8395 111.613 79.9379 112.112C70.6739 112.59 61.4532 112.826 52.485 112.824C51.0085 112.817 49.5328 112.796 48.0563 112.775C47.2213 112.763 46.3866 112.751 45.5515 112.742L42.1909 112.693L38.8272 112.583C37.9731 112.553 37.1187 112.526 36.2646 112.5C34.774 112.453 33.3649 112.41 31.9942 112.347L24.7444 111.971C23.2873 111.907 21.7325 111.795 20.0861 111.675C19.4608 111.63 18.8363 111.585 18.2111 111.541C17.3496 111.476 16.4874 111.416 15.6256 111.357C14.1777 111.257 12.8105 111.163 11.5368 111.042C10.4359 110.941 9.38081 110.847 8.32503 110.751C4.67033 110.423 1.21945 110.113 -2.17465 109.711L-2.46381 109.679C-11.5935 108.729 -20.9348 107.38 -29.673 106.063C-47.1207 103.291 -65.2203 99.6326 -83.4748 95.1905C-93.2145 92.8195 -103.278 97.9087 -105.949 106.556C-108.619 115.204 -102.887 124.137 -93.1451 126.507C-73.801 131.215 -54.5842 135.096 -36.0286 138.042L-35.8713 138.066C-26.6728 139.453 -16.7941 140.879 -6.86256 141.916C-2.94516 142.377 0.910538 142.724 4.64035 143.059C5.66582 143.151 6.69093 143.243 7.71603 143.338C9.46086 143.502 11.1549 143.619 12.7943 143.732C13.5807 143.786 14.3674 143.84 15.1534 143.901L15.31 143.912C15.9095 143.953 16.5093 143.996 17.1088 144.04C18.9481 144.174 20.8495 144.311 22.8687 144.4L30.03 144.772C31.7329 144.851 33.3853 144.903 34.9842 144.952C35.7889 144.977 36.5943 145.002 37.399 145.031L37.4632 145.033L41.4028 145.158L45.0459 145.211C45.8548 145.22 46.6637 145.232 47.4727 145.243C49.0959 145.266 50.7197 145.289 52.344 145.296L52.4201 145.296H52.7731Z"
        fill="#FF7F41" />
    <path fill-rule="evenodd" clip-rule="evenodd"
        d="M298.604 94.7084C300.449 94.7084 302.324 94.4589 304.176 93.9336C333.577 85.5922 357.596 80.6959 379.764 78.5246L379.984 78.5018C380.794 78.4135 381.71 78.3374 382.68 78.2567C383.321 78.2035 383.962 78.1499 384.602 78.092C386.147 77.9561 387.587 77.83 388.899 77.7586L389.092 77.7477L393.88 77.444L400.902 77.1638L403.138 77.1303C403.765 77.1228 404.392 77.1125 405.019 77.1012C405.923 77.0859 406.827 77.0696 407.73 77.068C408.523 77.079 409.316 77.0868 410.11 77.0947C412.49 77.1191 414.738 77.1413 416.84 77.2468L417.334 77.2656C419.536 77.3229 421.864 77.4763 424.328 77.6381C425.012 77.6832 425.696 77.7279 426.379 77.7715C427.292 77.8453 428.204 77.9308 429.115 78.0156C429.717 78.0713 430.318 78.1274 430.92 78.1809C431.249 78.2125 431.578 78.242 431.907 78.2708C432.233 78.2992 432.56 78.3252 432.885 78.3637L438.797 79.0646L444.435 79.8848C445.009 79.9834 445.583 80.0808 446.158 80.1784C448.646 80.6014 450.996 81.0002 453.191 81.4647C463.015 83.5452 472.881 78.1593 475.224 69.4366C477.566 60.714 471.5 51.9572 461.674 49.8776C458.678 49.2437 455.807 48.756 453.03 48.2843C452.4 48.1772 451.77 48.0701 451.14 47.9618L450.611 47.8776L443.925 46.9119L437.731 46.1775C436.891 46.0776 436.129 46.0106 435.516 45.9568C435.283 45.9361 435.051 45.9161 434.819 45.8935L434.642 45.8769C434.07 45.8262 433.499 45.773 432.927 45.7198C431.781 45.6134 430.636 45.5075 429.488 45.4158L429.14 45.3908C428.437 45.347 427.734 45.3006 427.031 45.2543C424.351 45.0781 421.582 44.8962 418.657 44.8142C415.821 44.678 413.129 44.6507 410.524 44.6248C409.735 44.6163 408.947 44.6088 408.159 44.5975L407.862 44.5953C406.68 44.5956 405.497 44.6147 404.314 44.6348C403.748 44.6448 403.182 44.6545 402.616 44.6608L399.555 44.7127L391.51 45.0392L386.579 45.3517C384.603 45.4603 382.767 45.6218 380.99 45.7783L380.904 45.7855C380.36 45.8353 379.816 45.8804 379.271 45.9258C378.176 46.0169 376.938 46.1195 375.648 46.2582C351.029 48.6774 324.775 53.9992 293.041 63.0023C283.419 65.7321 278.112 74.8692 281.187 83.4106C283.67 90.3082 290.861 94.7084 298.604 94.7084Z"
        fill="#59CBE8" />
    <path fill-rule="evenodd" clip-rule="evenodd"
        d="M241.172 91.2057C242.601 91.2057 244.056 90.9957 245.482 90.5533C248.408 89.6458 251.336 88.7336 254.267 87.8208C270.52 82.7588 287.326 77.5244 304.11 72.9324C326.21 66.8831 345.733 62.7168 363.797 60.1952C370.925 59.2004 375.794 53.2644 374.674 46.9375C373.553 40.6099 366.868 36.2862 359.738 37.2823C340.429 39.9776 319.716 44.3887 296.413 50.7673C279.15 55.4899 262.103 60.7994 245.617 65.934C242.696 66.844 239.778 67.7527 236.862 68.6574C230.051 70.7705 226.459 77.3851 228.839 83.4316C230.721 88.2118 235.773 91.2057 241.172 91.2057Z"
        fill="#FDDA24" />
    <path fill-rule="evenodd" clip-rule="evenodd"
        d="M584.314 129.046C588.984 129.046 593.655 127.468 597.224 124.31C604.379 117.981 604.399 107.701 597.269 101.349C585.76 91.0967 573.511 81.7667 560.863 73.6188C547.618 65.083 533.618 57.6432 519.254 51.5078C511.608 48.2494 504.03 45.3978 496.715 43.0268C489.139 40.5622 481.294 38.381 473.416 36.5496L470.6 35.9098C469.501 35.6572 468.414 35.4111 467.205 35.1794L461.232 33.9936L455.745 33.0457C454.482 32.8178 453.297 32.6432 452.296 32.5014L446.2 31.6286L443.255 31.2792C442.72 31.2194 442.185 31.1543 441.65 31.0892C440.291 30.9245 438.755 30.7383 437.098 30.6037L431.029 30.0568L425.378 29.6908C415.306 29.0435 406.541 35.7592 405.806 44.7026C405.071 53.6456 412.642 61.4248 422.716 62.0772L428.098 62.4259L433.708 62.9361C434.568 63.0047 435.605 63.1302 436.702 63.2633C437.334 63.3397 437.966 63.416 438.598 63.4874L441.109 63.7857L446.498 64.5637C447.137 64.6538 447.875 64.7612 448.494 64.8742L448.675 64.9061L453.984 65.8234L459.448 66.9137C460.001 67.0186 460.68 67.1729 461.447 67.3498L464.206 67.9762C470.947 69.5445 477.656 71.4109 484.149 73.523C490.371 75.5399 496.845 77.9779 503.409 80.7753C515.789 86.0639 527.896 92.5 539.376 99.8989C550.458 107.038 561.218 115.237 571.359 124.271C574.932 127.454 579.623 129.046 584.314 129.046Z"
        fill="#00C389" />
    <path fill-rule="evenodd" clip-rule="evenodd"
        d="M619.715 191.168C621.86 191.168 624.034 190.698 626.042 189.709C632.351 186.601 634.627 179.541 631.126 173.94C626.428 166.426 620.928 158.692 614.776 150.952C608.823 143.476 602.485 136.277 595.93 129.545C582.231 115.457 567.241 102.936 551.382 92.3326C545.618 88.4796 537.427 89.503 533.087 94.6194C528.746 99.7361 529.9 107.007 535.663 110.86C550.041 120.473 563.665 131.861 576.158 144.707C582.165 150.877 587.975 157.478 593.434 164.332C599.039 171.385 604.036 178.408 608.28 185.196C610.667 189.013 615.122 191.168 619.715 191.168Z"
        fill="#9063CD" />
    <path fill-rule="evenodd" clip-rule="evenodd"
        d="M33.7996 124.837C40.7437 124.837 46.5241 119.982 46.8401 113.761C47.1645 107.363 41.5851 101.942 34.3773 101.654C6.15842 100.525 -23.6702 96.8072 -54.2803 90.603C-68.417 87.7371 -83.1275 84.2573 -98.002 80.2606C-111.609 76.5971 -125.705 72.3675 -141.09 67.3319C-147.858 65.1168 -155.37 68.1912 -157.866 74.2014C-160.362 80.2106 -156.898 86.8787 -150.128 89.0944C-134.259 94.2888 -119.686 98.6601 -105.578 102.459C-90.1213 106.612 -74.8208 110.231 -60.0969 113.216C-27.9649 119.728 3.4248 123.634 33.2016 124.825C33.4015 124.833 33.6011 124.837 33.7996 124.837Z"
        fill="#FDDA24" />
</svg>